Coordinates
version=1
nRows=24
nColumns=17
inDegrees=yes

Units are S.I. units (second, meters, Newtons, ...)
If the header above contains a line with 'inDegrees', this indicates whether rotational values are in degrees (yes) or radians (no).

endheader
time	pelvis_tilt	pelvis_tx	pelvis_ty	hip_flexion_l	hip_flexion_r	knee_angle_l	knee_angle_r	ankle_angle_l	ankle_angle_r	lumbar_extension	FC_flexion	FC_adduction	FC_rotation	FC_tx	FC_ty	FC_tz
      4.27000000	    105.53734025	     -0.32327374	      1.03724249	     73.83242910	    -16.01834686	    -69.30347905	     -3.44474705	    -23.46072879	    -44.53792459	    -31.30213162	     -2.03396014	     -3.74694260	     89.24971053	     -0.14157459	     -0.14300292	     -0.21253659
      4.28000000	    105.54827161	     -0.32331457	      1.03715571	     73.83657761	    -16.00898571	    -69.19282818	     -3.47432724	    -23.41054762	    -44.51983908	    -31.33992188	     -2.07009867	     -3.70673057	     89.40501823	     -0.14153277	     -0.14313005	     -0.21250663
      4.29000000	    105.56552088	     -0.32333012	      1.03712144	     73.83837778	    -16.00315839	    -69.13965604	     -3.51465091	    -23.36469520	    -44.50337822	    -31.35622782	     -2.06546643	     -3.67867924	     89.38369008	     -0.14132920	     -0.14329136	     -0.21245938
      4.30000000	    105.58331238	     -0.32334869	      1.03707262	     73.84699799	    -16.00797245	    -69.08002730	     -3.53525039	    -23.07450801	    -44.39755789	    -31.38140468	     -2.05194580	     -3.65582092	     89.24648936	     -0.14130671	     -0.14345056	     -0.21247039
      4.31000000	    105.59574172	     -0.32337526	      1.03707409	     73.85437374	    -16.01491695	    -69.01919406	     -3.54892418	    -23.06291804	    -44.38145197	    -31.39615419	     -1.98410116	     -3.68463478	     89.09862820	     -0.14141336	     -0.14350284	     -0.21266753
      4.32000000	    105.61110447	     -0.32339759	      1.03705410	     73.86509916	    -16.02706876	    -68.94160131	     -3.55056059	    -23.14485250	    -44.31979101	    -31.40867679	     -1.92507307	     -3.73840096	     88.97984052	     -0.14144569	     -0.14356839	     -0.21299561
      4.33000000	    105.63071244	     -0.32341369	      1.03702556	     73.85791556	    -16.02600673	    -68.84472567	     -3.58781304	    -23.18087785	    -44.29690387	    -31.43660501	     -1.89208649	     -3.82549281	     89.00586976	     -0.14136691	     -0.14347957	     -0.21320673
      4.34000000	    105.63506863	     -0.32344052	      1.03697810	     73.87562553	    -16.01452167	    -68.71522462	     -3.60968336	    -23.56126364	    -44.19681881	    -31.44520912	     -2.04898019	     -3.86595754	     89.17349558	     -0.14146601	     -0.14351601	     -0.21342856
      4.35000000	    105.64969878	     -0.32344678	      1.03700755	     73.90039415	    -16.02743915	    -68.65079171	     -3.61460611	    -23.55923532	    -44.19266276	    -31.45124497	     -2.05321253	     -3.88676404	     89.40448905	     -0.14164145	     -0.14350688	     -0.21351670
      4.36000000	    105.66602485	     -0.32347619	      1.03697146	     73.91755954	    -16.02599334	    -68.59995105	     -3.64411110	    -23.54264316	    -44.17329516	    -31.47743394	     -1.96105637	     -3.85766564	     89.60277904	     -0.14169107	     -0.14362073	     -0.21352946
      4.37000000	    105.69714924	     -0.32349743	      1.03699296	     73.91359813	    -16.05518618	    -68.59372635	     -3.65326645	    -23.26702654	    -44.03439282	    -31.50556628	     -1.89365482	     -3.74278175	     89.68514582	     -0.14152986	     -0.14363186	     -0.21333030
      4.38000000	    105.71190126	     -0.32351562	      1.03700028	     73.93008329	    -16.06047032	    -68.57475912	     -3.67447024	    -23.14207691	    -43.95720938	    -31.52464594	     -1.97325241	     -3.66511705	     89.61244062	     -0.14143195	     -0.14378344	     -0.21340041
      4.39000000	    105.74340124	     -0.32355035	      1.03699151	     73.92122159	    -16.07923923	    -68.54361840	     -3.69969712	    -23.12324818	    -43.91647444	    -31.56408770	     -1.93613502	     -3.60615715	     89.53376684	     -0.14135694	     -0.14383025	     -0.21339153
      4.40000000	    105.76374269	     -0.32356881	      1.03704112	     73.94017082	    -16.10993440	    -68.49526438	     -3.68570699	    -23.15265887	    -43.89026298	    -31.56898742	     -2.00315957	     -3.65163989	     89.50646897	     -0.14122630	     -0.14389624	     -0.21361391
      4.41000000	    105.83446959	     -0.32362406	      1.03699256	     73.90043128	    -16.18004982	    -68.42008497	     -3.69200368	    -23.38865788	    -43.75338041	    -31.64894402	     -2.06639544	     -3.70715853	     89.60647538	     -0.14110701	     -0.14387895	     -0.21386524
      4.42000000	    105.88005289	     -0.32365861	      1.03706337	     73.88630161	    -16.23484768	    -68.38516650	     -3.69090106	    -23.48655267	    -43.71574020	    -31.68573876	     -1.96796475	     -3.73519154	     89.83883539	     -0.14120127	     -0.14376701	     -0.21399584
      4.43000000	    105.92303184	     -0.32369636	      1.03705953	     73.87447519	    -16.26958888	    -68.30026717	     -3.71309174	    -23.63032112	    -43.62764630	    -31.73189955	     -1.89622462	     -3.69387196	     90.11274789	     -0.14139924	     -0.14359983	     -0.21403279
      4.44000000	    105.94388988	     -0.32371468	      1.03708650	     73.89993244	    -16.29149152	    -68.26667830	     -3.71746500	    -23.37211896	    -43.58739526	    -31.75184170	     -1.91587426	     -3.64625435	     90.29130047	     -0.14138997	     -0.14367893	     -0.21408844
      4.45000000	    105.95419901	     -0.32373956	      1.03706925	     73.92499672	    -16.29763481	    -68.25864376	     -3.71989897	    -23.36772244	    -43.58618803	    -31.76224842	     -1.91131511	     -3.57438766	     90.26880250	     -0.14119449	     -0.14380769	     -0.21400596
      4.46000000	    105.98619986	     -0.32377074	      1.03710350	     73.94487935	    -16.33290958	    -68.26930729	     -3.72319973	    -23.03838505	    -43.54503234	    -31.79983671	     -1.91580944	     -3.50827622	     90.15281719	     -0.14094146	     -0.14389588	     -0.21401661
      4.47000000	    106.02674724	     -0.32379696	      1.03707652	     73.95904971	    -16.36432356	    -68.21870037	     -3.74233836	    -23.28679800	    -43.49374120	    -31.84432531	     -2.00149522	     -3.50650998	     90.09962799	     -0.14083238	     -0.14406358	     -0.21414178
      4.48000000	    106.04122480	     -0.32384357	      1.03710217	     73.99186971	    -16.38164523	    -68.16382231	     -3.74119809	    -23.29346341	    -43.49096062	    -31.85373461	     -1.98430607	     -3.54140279	     90.11095993	     -0.14082086	     -0.14416427	     -0.21437406
      4.49000000	    106.12623528	     -0.32391364	      1.03708805	     73.95683547	    -16.46855856	    -68.08233647	     -3.74825770	    -23.65733756	    -43.42202758	    -31.95206745	     -1.89537604	     -3.57446960	     90.20786269	     -0.14106103	     -0.14422419	     -0.21460249
      4.50000000	    106.14425436	     -0.32394644	      1.03711763	     73.98947662	    -16.49097280	    -67.99027244	     -3.74433072	    -23.66085695	    -43.41826103	    -31.95821274	     -1.88950173	     -3.60582986	     90.40848520	     -0.14113908	     -0.14409712	     -0.21477293
